<svg width="24" height="25" viewBox="0 0 24 25" fill="none" xmlns="http://www.w3.org/2000/svg">
<g id="Avatar" clip-path="url(#clip0_14409_51)">
<g id="Vector">
<path d="M21 10.1356C21 17.1356 12 23.1356 12 23.1356C12 23.1356 3 17.1356 3 10.1356C3 7.74864 3.94821 5.45946 5.63604 3.77163C7.32387 2.0838 9.61305 1.13559 12 1.13559C14.3869 1.13559 16.6761 2.0838 18.364 3.77163C20.0518 5.45946 21 7.74864 21 10.1356Z" stroke="#090A0A" stroke-width="1.5" stroke-linecap="round" stroke-linejoin="round"/>
<path d="M12 13.1356C13.6569 13.1356 15 11.7924 15 10.1356C15 8.47874 13.6569 7.13559 12 7.13559C10.3431 7.13559 9 8.47874 9 10.1356C9 11.7924 10.3431 13.1356 12 13.1356Z" stroke="#090A0A" stroke-width="1.5" stroke-linecap="round" stroke-linejoin="round"/>
</g>
</g>
<defs>
<clipPath id="clip0_14409_51">
<rect width="24" height="24" fill="white" transform="translate(0 0.13559)"/>
</clipPath>
</defs>
</svg>
